<svg xmlns="http://www.w3.org/2000/svg" width="18" height="18" viewBox="0 0 18 18" fill="none">
<path d="M17.64 9.20455C17.64 8.56682 17.5827 7.95273 17.4764 7.36364H9V10.845H13.8436C13.635 11.97 13.0009 12.9232 12.0477 13.5618V15.8195H14.9564C16.6582 14.2527 17.64 11.9464 17.64 9.20455Z" fill="#4285F4"/>
<path d="M9 18C11.43 18 13.4673 17.1941 14.9564 15.8195L12.0477 13.5618C11.2418 14.1018 10.2109 14.4205 9 14.4205C6.92727 14.4205 5.14773 13.0127 4.50545 11.1877H1.51773V13.5182C3.01364 16.2991 5.79727 18 9 18Z" fill="#34A853"/>
<path d="M4.50545 11.1877C4.31364 10.6477 4.20545 10.0818 4.20545 9.5C4.20545 8.91818 4.31364 8.35227 4.50545 7.81227V5.48182H1.51773C0.848182 6.75636 0.5 8.09364 0.5 9.5C0.5 10.9064 0.848182 12.2436 1.51773 13.5182L4.50545 11.1877Z" fill="#FBBC05"/>
<path d="M9 4.57955C10.3214 4.57955 11.5077 5.05182 12.4405 5.93864L15.0218 3.35727C13.4673 1.89636 11.43 1 9 1C5.79727 1 3.01364 2.70091 1.51773 5.48182L4.50545 7.81227C5.14773 5.98727 6.92727 4.57955 9 4.57955Z" fill="#EA4335"/>
</svg>
