<svg xmlns="http://www.w3.org/2000/svg" viewBox="0 0 24 24" fill="none" stroke="white" stroke-width="2" stroke-linecap="round" stroke-linejoin="round" class="h-8 w-8 text-primary"><path d="M20 16.2c-2.4 2.4-5.8 4.3-9 4.3-3.2 0-6.6-1.9-9-4.3"></path><path d="M20 12.2c-2.4 2.4-5.8 4.3-9 4.3-3.2 0-6.6-1.9-9-4.3"></path><path d="M4 8.8c2.4 2.4 5.8 4.3 9 4.3 3.2 0 6.6-1.9 9-4.3"></path><path d="M12 2a4 4 0 0 0-4 4c0 2.2 1.8 4 4 4s4-1.8 4-4c0-2.2-1.8-4-4-4z"></path><path d="M12.1 6.2c-2.4 2.4-5.8 4.3-9 4.3"></path></svg>